<?xml version="1.0" encoding="iso-8859-1"?>
<!-- Generator: Adobe Illustrator 19.0.0, SVG Export Plug-In . SVG Version: 6.00 Build 0)  -->
<svg version="1.1" id="Capa_1" xmlns="http://www.w3.org/2000/svg" xmlns:xlink="http://www.w3.org/1999/xlink" x="0px" y="0px"
	 viewBox="0 0 512 512" style="enable-background:new 0 0 512 512;" xml:space="preserve">
<path style="fill:#F1F1F0;" d="M484.447,215.922c0-115.1-93.307-208.407-208.407-208.407S67.633,100.822,67.633,215.922
	l-40.078,80.157l40.078,24.047V440.36h80.157v64.125H404.29V380.199C453.08,342.054,484.447,282.653,484.447,215.922z"/>
<path style="fill:#53AAD4;" d="M260.008,312.11c-6.16,0-11.777,2.319-16.031,6.128v-38.191h-38.191
	c3.809,4.254,6.128,9.871,6.128,16.031c0,13.281-10.766,24.047-24.047,24.047s-24.047-10.766-24.047-24.047
	c0-6.16,2.319-11.777,6.128-16.031h-38.191v112.219h112.219v-38.191c4.254,3.809,9.871,6.128,16.031,6.128
	c13.281,0,24.047-10.766,24.047-24.047S273.288,312.11,260.008,312.11z"/>
<polygon style="fill:#1C89B0;" points="155.805,368.219 155.805,280.047 131.758,280.047 131.758,392.266 243.977,392.266 
	243.977,368.219 "/>
<path style="fill:#74D0E3;" d="M211.915,296.078c0-6.16-2.319-11.777-6.128-16.031h38.191v-38.191
	c-4.254,3.809-9.871,6.128-16.031,6.128c-13.281,0-24.047-10.766-24.047-24.047s10.766-24.047,24.047-24.047
	c6.16,0,11.777,2.319,16.031,6.128v-38.191H131.758v112.219h38.191c-3.809,4.254-6.128,9.871-6.128,16.031
	c0,13.281,10.766,24.047,24.047,24.047S211.915,309.359,211.915,296.078z"/>
<rect x="131.757" y="167.828" style="fill:#53AAD4;" width="24.047" height="112.219"/>
<path style="fill:#F5577E;" d="M322.993,210.99c4.355-4.356,6.688-9.967,7.003-15.669l27.005,27.005l27.005-27.005
	c-5.702-0.316-11.313-2.647-15.669-7.003c-9.391-9.391-9.391-24.617,0-34.007c9.391-9.391,24.617-9.391,34.007,0
	c4.355,4.355,6.688,9.967,7.003,15.669l27.005-27.005l-79.35-79.351l-79.351,79.351l27.005,27.005
	c-5.702,0.316-11.313,2.647-15.669,7.003c-9.391,9.391-9.391,24.617,0,34.007C298.377,220.381,313.603,220.381,322.993,210.99z"/>
<path style="fill:#74D0E3;" d="M276.04,264.016c0,6.16,2.319,11.777,6.128,16.031h-38.191v38.191
	c4.254-3.809,9.871-6.128,16.031-6.128c13.281,0,24.047,10.766,24.047,24.047s-10.766,24.047-24.047,24.047
	c-6.16,0-11.777-2.319-16.031-6.128v38.191h112.219V280.047h-38.191c3.809-4.254,6.128-9.871,6.128-16.031
	c0-13.281-10.766-24.047-24.047-24.047S276.04,250.735,276.04,264.016z"/>
<rect x="243.976" y="368.219" style="fill:#53AAD4;" width="112.219" height="24.047"/>
<path d="M428.719,63.243C387.936,22.46,333.713,0,276.04,0S164.142,22.46,123.36,63.243
	c-40.361,40.362-62.776,93.883-63.235,150.892l-39.292,78.584c-1.756,3.512-0.513,7.784,2.856,9.804l36.429,21.858v115.98
	c0,4.15,3.364,7.515,7.515,7.515h72.642v56.611c0,4.15,3.364,7.515,7.515,7.515c4.151,0,7.515-3.365,7.515-7.515V440.36
	c0-4.15-3.364-7.515-7.515-7.515H75.147v-112.72c0-2.639-1.385-5.086-3.649-6.444l-34.111-20.467l36.966-73.932
	c0.522-1.044,0.794-2.193,0.794-3.361c0-110.772,90.12-200.892,200.892-200.892s200.892,90.12,200.892,200.892
	c0,62.247-28.164,119.964-77.27,158.356c-1.822,1.424-2.887,3.608-2.887,5.921v124.287c0,4.15,3.364,7.515,7.515,7.515
	c4.151,0,7.515-3.365,7.515-7.515V383.823c50.992-41.246,80.157-102.228,80.157-167.901
	C491.961,158.247,469.502,104.024,428.719,63.243z"/>
<path d="M384.421,187.818c-4.066-0.224-7.89-1.934-10.77-4.813c-6.371-6.372-6.371-17.008,0.001-23.38
	c6.372-6.372,17.007-6.371,23.38,0c2.879,2.879,4.588,6.703,4.813,10.769c0.351,6.346,8.311,9.404,12.817,4.9l27.005-27.005
	c2.935-2.935,2.935-7.693,0-10.627l-29.992-29.992c-2.936-2.935-7.693-2.935-10.628,0c-2.935,2.935-2.935,7.693,0,10.627
	l24.678,24.677l-12.871,12.871c-1.399-2.488-3.142-4.794-5.196-6.848c-9.283-9.284-23.794-11.863-35.698-6.285
	c-3.316,1.554-6.347,3.696-8.936,6.285c-9.284,9.283-11.863,23.793-6.286,35.698c1.554,3.316,3.696,6.347,6.285,8.936
	c2.054,2.054,4.361,3.796,6.848,5.196l-12.871,12.871l-21.69-21.691c-4.506-4.503-12.466-1.45-12.817,4.9
	c-0.479,8.65-7.844,15.611-16.503,15.611c-4.416,0-8.568-1.719-11.691-4.842c-6.372-6.373-6.372-17.007,0-23.38
	c2.88-2.88,6.705-4.589,10.771-4.813c6.345-0.352,9.404-8.311,4.9-12.817l-21.691-21.691l68.723-68.723l17.412,17.412
	c2.936,2.935,7.693,2.935,10.628,0c2.935-2.935,2.935-7.693,0-10.627l-22.726-22.725c-2.936-2.935-7.693-2.935-10.628,0
	l-79.35,79.351c-2.935,2.935-2.935,7.693,0,10.627l18.185,18.185c-2.488,1.399-4.794,3.142-6.848,5.196
	c-9.285,9.283-11.865,23.793-6.286,35.698c1.554,3.316,3.696,6.347,6.285,8.936c5.961,5.962,13.887,9.244,22.318,9.244
	c8.43,0,16.356-3.282,22.318-9.244c2.054-2.054,3.795-4.361,5.195-6.848l18.184,18.185c2.896,2.895,7.732,2.895,10.628,0
	l27.005-27.005C393.825,196.13,390.768,188.17,384.421,187.818z"/>
<path d="M356.196,272.532H330.48c0.771-2.749,1.168-5.612,1.168-8.517c0-17.403-14.159-31.562-31.562-31.562
	c-17.403,0-31.562,14.159-31.562,31.562c0,2.905,0.398,5.767,1.168,8.517h-18.202v-30.676c0-6.353-7.777-9.85-12.527-5.599
	c-3.033,2.716-6.948,4.212-11.019,4.212c-9.116,0-16.532-7.416-16.532-16.532s7.416-16.532,16.532-16.532
	c4.071,0,7.986,1.496,11.019,4.212c4.75,4.251,12.527,0.756,12.527-5.598v-38.192c0-4.15-3.364-7.515-7.515-7.515H131.758
	c-4.151,0-7.515,3.365-7.515,7.515v224.438c0,4.15,3.364,7.515,7.515,7.515h224.438c4.151,0,7.515-3.365,7.515-7.515V280.047
	C363.711,275.897,360.346,272.532,356.196,272.532z M139.273,175.342h97.19v18.203c-2.748-0.771-5.612-1.169-8.517-1.169
	c-17.403,0-31.562,14.159-31.562,31.562s14.159,31.562,31.562,31.562c2.905,0,5.768-0.399,8.517-1.169v18.203h-30.676
	c-6.352,0-9.852,7.777-5.599,12.526c2.716,3.034,4.212,6.948,4.212,11.02c0,9.116-7.416,16.532-16.532,16.532
	c-9.116,0-16.532-7.417-16.532-16.532c0-4.071,1.496-7.985,4.212-11.02c4.253-4.749,0.754-12.526-5.599-12.526h-30.676V175.342z
	 M240.91,347.215c-2.705,1.209-4.448,3.897-4.448,6.86v30.676h-97.19v-97.19h18.202c-0.771,2.749-1.168,5.612-1.168,8.517
	c0,17.403,14.159,31.562,31.562,31.562s31.562-14.159,31.562-31.562c0-2.905-0.398-5.767-1.168-8.517h18.202v30.676
	c0,6.353,7.777,9.851,12.527,5.598c3.033-2.715,6.948-4.212,11.019-4.212c9.116,0,16.532,7.416,16.532,16.532
	c0,9.116-7.417,16.532-16.532,16.532c-4.071,0-7.986-1.496-11.019-4.212C246.781,346.5,243.614,346.007,240.91,347.215z
	 M348.682,384.751h-97.19v-18.203c2.748,0.771,5.612,1.169,8.517,1.169c17.403,0,31.562-14.159,31.562-31.562
	s-14.159-31.562-31.562-31.562c-2.905,0-5.768,0.399-8.517,1.169v-18.203h30.676c6.353,0,9.851-7.776,5.599-12.527
	c-2.716-3.034-4.212-6.947-4.212-11.019c0-9.116,7.416-16.532,16.532-16.532c9.116,0,16.532,7.416,16.532,16.532
	c0,4.072-1.496,7.985-4.212,11.019c-4.251,4.75-0.755,12.527,5.599,12.527h30.676V384.751z"/>
<g>
</g>
<g>
</g>
<g>
</g>
<g>
</g>
<g>
</g>
<g>
</g>
<g>
</g>
<g>
</g>
<g>
</g>
<g>
</g>
<g>
</g>
<g>
</g>
<g>
</g>
<g>
</g>
<g>
</g>
</svg>
